<?xml version="1.0" encoding="UTF-8"?><svg xmlns="http://www.w3.org/2000/svg" xmlns:xlink="http://www.w3.org/1999/xlink" fill-opacity="1" color-rendering="auto" color-interpolation="auto" text-rendering="auto" stroke="black" stroke-linecap="square" width="464" stroke-miterlimit="10" shape-rendering="auto" stroke-opacity="1" fill="black" stroke-dasharray="none" font-weight="normal" stroke-width="1" height="330" font-family="'Dialog'" font-style="normal" stroke-linejoin="miter" font-size="12px" stroke-dashoffset="0" image-rendering="auto">
  <!--Generated by ySVG 2.5-->
  <defs id="genericDefs"/>
  <g>
    <g text-rendering="geometricPrecision" shape-rendering="geometricPrecision" transform="matrix(1.0071,0,0,0.9848,213.973,137.112)">
      <g clip-path="url(#clipPath3)">
        <svg xml:space="preserve" opacity="1" writing-mode="lr-tb" stop-color="rgb(0, 0, 0)" shape-rendering="auto" glyph-orientation-horizontal="0deg" color-profile="auto" lighting-color="rgb(255, 255, 255)" color="rgb(0, 0, 0)" font-weight="400" alignment-baseline="auto" font-style="normal" version="1.1" color-interpolation-filters="linearrgb" text-anchor="start" stroke-linecap="butt" color-interpolation="srgb" font-variant="normal" word-spacing="normal" fill-opacity="1" text-rendering="auto" clip-path="none" text-decoration="none" letter-spacing="normal" viewBox="0 0 40 48" glyph-orientation-vertical="auto" display="inline" font-size-adjust="none" overflow="visible" fill="rgb(0, 0, 0)" font-stretch="normal" stroke-dasharray="none" stroke-miterlimit="4" stop-opacity="1" color-rendering="auto" font-size="12" pointer-events="visiblepainted" mask="none" direction="ltr" baseline-shift="baseline" enable-background="new 0 0 40 48" fill-rule="nonzero" image-rendering="auto" stroke-dashoffset="0" width="40px" marker-end="none" clip="auto" cursor="auto" stroke="none" filter="none" visibility="visible" kerning="auto" stroke-width="1" font-family="&quot;Arial&quot;,&quot;Helvetica&quot;,sans-serif" flood-opacity="1" clip-rule="nonzero" src="none" height="48px" unicode-bidi="normal" stroke-linejoin="miter" stroke-opacity="1" flood-color="rgb(0, 0, 0)" dominant-baseline="auto" marker-start="none" x="0px" marker-mid="none" y="0px">
<defs>
<clipPath clipPathUnits="userSpaceOnUse" id="clipPath1">
              <path d="M0 0 L464 0 L464 330 L0 330 L0 0 Z"/>
            </clipPath>
            <clipPath clipPathUnits="userSpaceOnUse" id="clipPath2">
              <path d="M238 218 L702 218 L702 548 L238 548 L238 218 Z"/>
            </clipPath>
            <clipPath clipPathUnits="userSpaceOnUse" id="clipPath3">
              <path d="M-212.4735 -139.2321 L248.2748 -139.2321 L248.2748 195.8705 L-212.4735 195.8705 L-212.4735 -139.2321 Z"/>
            </clipPath>
            <clipPath clipPathUnits="userSpaceOnUse" id="clipPath4">
              <path d="M-408.6385 -258.669 L55.3615 -258.669 L55.3615 71.331 L-408.6385 71.331 L-408.6385 -258.669 Z"/>
            </clipPath>
            <clipPath clipPathUnits="userSpaceOnUse" id="clipPath5">
              <path d="M-408.6385 -22.669 L55.3615 -22.669 L55.3615 307.331 L-408.6385 307.331 L-408.6385 -22.669 Z"/>
            </clipPath>
            <clipPath clipPathUnits="userSpaceOnUse" id="clipPath6">
              <path d="M-15.5 -141.556 L448.5 -141.556 L448.5 188.444 L-15.5 188.444 L-15.5 -141.556 Z"/>
            </clipPath>
          </defs>
<linearGradient gradientTransform="matrix(1 0 0 1 -370.2002 -614.5742)" x1="370.2002" x2="409.4502" gradientUnits="userSpaceOnUse" y1="655.0938" y2="655.0938" id="svg1.SVGID_1_">
	<stop offset="0" style="stop-color:#4D4D4D"/>
	<stop offset="0.0558" style="stop-color:#5F5F5F"/>
	<stop offset="0.2103" style="stop-color:#8D8D8D"/>
	<stop offset="0.3479" style="stop-color:#AEAEAE"/>
	<stop offset="0.4623" style="stop-color:#C2C2C2"/>
	<stop offset="0.5394" style="stop-color:#C9C9C9"/>
	<stop offset="0.6247" style="stop-color:#C5C5C5"/>
	<stop offset="0.7072" style="stop-color:#BABABA"/>
	<stop offset="0.7885" style="stop-color:#A6A6A6"/>
	<stop offset="0.869" style="stop-color:#8B8B8B"/>
	<stop offset="0.9484" style="stop-color:#686868"/>
	<stop offset="1" style="stop-color:#4D4D4D"/>
</linearGradient>
<path fill="url(#svg1.SVGID_1_)" d="M19.625,37.613C8.787,37.613,0,35.738,0,33.425v10c0,2.313,8.787,4.188,19.625,4.188  c10.839,0,19.625-1.875,19.625-4.188v-10C39.25,35.738,30.464,37.613,19.625,37.613z"/>
<linearGradient gradientTransform="matrix(1 0 0 1 -370.2002 -614.5742)" x1="370.2002" x2="409.4502" gradientUnits="userSpaceOnUse" y1="649.0938" y2="649.0938" id="svg1.SVGID_2_">
	<stop offset="0" style="stop-color:#B3B3B3"/>
	<stop offset="0.0171" style="stop-color:#B6B6B6"/>
	<stop offset="0.235" style="stop-color:#D7D7D7"/>
	<stop offset="0.4168" style="stop-color:#EBEBEB"/>
	<stop offset="0.5394" style="stop-color:#F2F2F2"/>
	<stop offset="0.6579" style="stop-color:#EEEEEE"/>
	<stop offset="0.7724" style="stop-color:#E3E3E3"/>
	<stop offset="0.8853" style="stop-color:#CFCFCF"/>
	<stop offset="0.9965" style="stop-color:#B4B4B4"/>
	<stop offset="1" style="stop-color:#B3B3B3"/>
</linearGradient>
<path fill="url(#svg1.SVGID_2_)" d="M19.625,37.613c10.839,0,19.625-1.875,19.625-4.188l-1.229-2c0,2.168-8.235,3.927-18.396,3.927  c-9.481,0-17.396-1.959-18.396-3.927l-1.229,2C0,35.738,8.787,37.613,19.625,37.613z"/>
<linearGradient gradientTransform="matrix(1 0 0 1 -370.2002 -614.5742)" x1="371.4297" x2="408.2217" gradientUnits="userSpaceOnUse" y1="646" y2="646" id="svg1.SVGID_3_">
	<stop offset="0" style="stop-color:#C9C9C9"/>
	<stop offset="1" style="stop-color:#808080"/>
</linearGradient>
<ellipse rx="18.396" fill="url(#svg1.SVGID_3_)" ry="3.926" cx="19.625" cy="31.425"/>
<linearGradient gradientTransform="matrix(1 0 0 1 -370.2002 -614.5742)" x1="370.2002" x2="409.4502" gradientUnits="userSpaceOnUse" y1="641.0938" y2="641.0938" id="svg1.SVGID_4_">
	<stop offset="0" style="stop-color:#4D4D4D"/>
	<stop offset="0.0558" style="stop-color:#5F5F5F"/>
	<stop offset="0.2103" style="stop-color:#8D8D8D"/>
	<stop offset="0.3479" style="stop-color:#AEAEAE"/>
	<stop offset="0.4623" style="stop-color:#C2C2C2"/>
	<stop offset="0.5394" style="stop-color:#C9C9C9"/>
	<stop offset="0.6247" style="stop-color:#C5C5C5"/>
	<stop offset="0.7072" style="stop-color:#BABABA"/>
	<stop offset="0.7885" style="stop-color:#A6A6A6"/>
	<stop offset="0.869" style="stop-color:#8B8B8B"/>
	<stop offset="0.9484" style="stop-color:#686868"/>
	<stop offset="1" style="stop-color:#4D4D4D"/>
</linearGradient>
<path fill="url(#svg1.SVGID_4_)" d="M19.625,23.613C8.787,23.613,0,21.738,0,19.425v10c0,2.313,8.787,4.188,19.625,4.188  c10.839,0,19.625-1.875,19.625-4.188v-10C39.25,21.738,30.464,23.613,19.625,23.613z"/>
<linearGradient gradientTransform="matrix(1 0 0 1 -370.2002 -614.5742)" x1="370.2002" x2="409.4502" gradientUnits="userSpaceOnUse" y1="635.0938" y2="635.0938" id="svg1.SVGID_5_">
	<stop offset="0" style="stop-color:#B3B3B3"/>
	<stop offset="0.0171" style="stop-color:#B6B6B6"/>
	<stop offset="0.235" style="stop-color:#D7D7D7"/>
	<stop offset="0.4168" style="stop-color:#EBEBEB"/>
	<stop offset="0.5394" style="stop-color:#F2F2F2"/>
	<stop offset="0.6579" style="stop-color:#EEEEEE"/>
	<stop offset="0.7724" style="stop-color:#E3E3E3"/>
	<stop offset="0.8853" style="stop-color:#CFCFCF"/>
	<stop offset="0.9965" style="stop-color:#B4B4B4"/>
	<stop offset="1" style="stop-color:#B3B3B3"/>
</linearGradient>
<path fill="url(#svg1.SVGID_5_)" d="M19.625,23.613c10.839,0,19.625-1.875,19.625-4.188l-1.229-2c0,2.168-8.235,3.926-18.396,3.926  c-9.481,0-17.396-1.959-18.396-3.926l-1.229,2C0,21.738,8.787,23.613,19.625,23.613z"/>
<linearGradient gradientTransform="matrix(1 0 0 1 -370.2002 -614.5742)" x1="371.4297" x2="408.2217" gradientUnits="userSpaceOnUse" y1="632" y2="632" id="svg1.SVGID_6_">
	<stop offset="0" style="stop-color:#C9C9C9"/>
	<stop offset="1" style="stop-color:#808080"/>
</linearGradient>
<ellipse rx="18.396" fill="url(#svg1.SVGID_6_)" ry="3.926" cx="19.625" cy="17.426"/>
<linearGradient gradientTransform="matrix(1 0 0 1 -370.2002 -614.5742)" x1="370.2002" x2="409.4502" gradientUnits="userSpaceOnUse" y1="627.5938" y2="627.5938" id="svg1.SVGID_7_">
	<stop offset="0" style="stop-color:#4D4D4D"/>
	<stop offset="0.0558" style="stop-color:#5F5F5F"/>
	<stop offset="0.2103" style="stop-color:#8D8D8D"/>
	<stop offset="0.3479" style="stop-color:#AEAEAE"/>
	<stop offset="0.4623" style="stop-color:#C2C2C2"/>
	<stop offset="0.5394" style="stop-color:#C9C9C9"/>
	<stop offset="0.6247" style="stop-color:#C5C5C5"/>
	<stop offset="0.7072" style="stop-color:#BABABA"/>
	<stop offset="0.7885" style="stop-color:#A6A6A6"/>
	<stop offset="0.869" style="stop-color:#8B8B8B"/>
	<stop offset="0.9484" style="stop-color:#686868"/>
	<stop offset="1" style="stop-color:#4D4D4D"/>
</linearGradient>
<path fill="url(#svg1.SVGID_7_)" d="M19.625,10.113C8.787,10.113,0,8.238,0,5.925v10c0,2.313,8.787,4.188,19.625,4.188  c10.839,0,19.625-1.875,19.625-4.188v-10C39.25,8.238,30.464,10.113,19.625,10.113z"/>
<linearGradient gradientTransform="matrix(1 0 0 1 -370.2002 -614.5742)" x1="370.2002" x2="409.4502" gradientUnits="userSpaceOnUse" y1="621.5938" y2="621.5938" id="svg1.SVGID_8_">
	<stop offset="0" style="stop-color:#B3B3B3"/>
	<stop offset="0.0171" style="stop-color:#B6B6B6"/>
	<stop offset="0.235" style="stop-color:#D7D7D7"/>
	<stop offset="0.4168" style="stop-color:#EBEBEB"/>
	<stop offset="0.5394" style="stop-color:#F2F2F2"/>
	<stop offset="0.6579" style="stop-color:#EEEEEE"/>
	<stop offset="0.7724" style="stop-color:#E3E3E3"/>
	<stop offset="0.8853" style="stop-color:#CFCFCF"/>
	<stop offset="0.9965" style="stop-color:#B4B4B4"/>
	<stop offset="1" style="stop-color:#B3B3B3"/>
</linearGradient>
<path fill="url(#svg1.SVGID_8_)" d="M19.625,10.113c10.839,0,19.625-1.875,19.625-4.188l-1.229-2c0,2.168-8.235,3.926-18.396,3.926  c-9.481,0-17.396-1.959-18.396-3.926L0,5.925C0,8.238,8.787,10.113,19.625,10.113z"/>
<linearGradient gradientTransform="matrix(1 0 0 1 -370.2002 -614.5742)" x1="371.4297" x2="408.2217" gradientUnits="userSpaceOnUse" y1="618.5" y2="618.5" id="svg1.SVGID_9_">
	<stop offset="0" style="stop-color:#C9C9C9"/>
	<stop offset="1" style="stop-color:#808080"/>
</linearGradient>
<ellipse rx="18.396" fill="url(#svg1.SVGID_9_)" ry="3.926" cx="19.625" cy="3.926"/>
<path fill="#FFFFFF" d="M31.291,46.792c0,0-4.313,0.578-7.249,0.694  C20.917,47.613,15,47.613,15,47.613l-2.443-10.279l-0.119-2.283l-1.231-1.842L9.789,23.024l-0.082-0.119L9.3,20.715l-1.45-1.44  L5.329,8.793c0,0,5.296,0.882,7.234,1.07s8.375,0.25,8.375,0.25l3,9.875l-0.25,1.313l1.063,2.168l2.312,9.644l-0.375,1.875  l1.627,2.193L31.291,46.792z" enable-background="new    " opacity="0.24"/>
</svg>
      </g>
    </g>
    <g stroke-linecap="butt" transform="matrix(1,0,0,1,-238,-218)" fill="white" text-rendering="geometricPrecision" font-family="sans-serif" shape-rendering="geometricPrecision" stroke="white" stroke-miterlimit="1.45">
      <text x="381.6719" xml:space="preserve" y="419.6016" clip-path="url(#clipPath2)" stroke="none">Query service</text>
    </g>
    <g text-rendering="geometricPrecision" shape-rendering="geometricPrecision" transform="matrix(1,0,0,1,408.6385,258.669)">
      <g clip-path="url(#clipPath4)">
        <svg xml:space="preserve" opacity="1" writing-mode="lr-tb" stop-color="rgb(0, 0, 0)" shape-rendering="auto" glyph-orientation-horizontal="0deg" color-profile="auto" lighting-color="rgb(255, 255, 255)" color="rgb(0, 0, 0)" font-weight="400" alignment-baseline="auto" font-style="normal" version="1.1" color-interpolation-filters="linearrgb" text-anchor="start" stroke-linecap="butt" color-interpolation="srgb" font-variant="normal" word-spacing="normal" fill-opacity="1" text-rendering="auto" clip-path="none" text-decoration="none" letter-spacing="normal" viewBox="-0.875 -0.887 41 48" glyph-orientation-vertical="auto" display="inline" font-size-adjust="none" overflow="visible" fill="rgb(0, 0, 0)" font-stretch="normal" stroke-dasharray="none" stroke-miterlimit="4" stop-opacity="1" color-rendering="auto" font-size="12" pointer-events="visiblepainted" mask="none" direction="ltr" baseline-shift="baseline" enable-background="new -0.875 -0.887 41 48" fill-rule="nonzero" image-rendering="auto" stroke-dashoffset="0" width="41px" marker-end="none" clip="auto" cursor="auto" stroke="none" filter="none" visibility="visible" kerning="auto" stroke-width="1" font-family="&quot;Arial&quot;,&quot;Helvetica&quot;,sans-serif" flood-opacity="1" clip-rule="nonzero" src="none" height="48px" unicode-bidi="normal" stroke-linejoin="miter" stroke-opacity="1" flood-color="rgb(0, 0, 0)" dominant-baseline="auto" marker-start="none" x="0px" marker-mid="none" y="0px">
<defs>
</defs>
<linearGradient gradientTransform="matrix(1 0 0 -1 -642.8008 -939.4756)" x1="642.8008" x2="682.0508" gradientUnits="userSpaceOnUse" y1="-979.1445" y2="-979.1445" id="svg2.SVGID_1_">
	<stop offset="0" style="stop-color:#3C89C9"/>
	<stop offset="0.1482" style="stop-color:#60A6DD"/>
	<stop offset="0.3113" style="stop-color:#81C1F0"/>
	<stop offset="0.4476" style="stop-color:#95D1FB"/>
	<stop offset="0.5394" style="stop-color:#9CD7FF"/>
	<stop offset="0.636" style="stop-color:#98D4FD"/>
	<stop offset="0.7293" style="stop-color:#8DCAF6"/>
	<stop offset="0.8214" style="stop-color:#79BBEB"/>
	<stop offset="0.912" style="stop-color:#5EA5DC"/>
	<stop offset="1" style="stop-color:#3C89C9"/>
</linearGradient>
<path fill="url(#svg2.SVGID_1_)" d="M19.625,36.763C8.787,36.763,0,34.888,0,32.575v10c0,2.313,8.787,4.188,19.625,4.188  c10.839,0,19.625-1.875,19.625-4.188v-10C39.25,34.888,30.464,36.763,19.625,36.763z"/>
<linearGradient gradientTransform="matrix(1 0 0 -1 -642.8008 -939.4756)" x1="642.8008" x2="682.0508" gradientUnits="userSpaceOnUse" y1="-973.1445" y2="-973.1445" id="svg2.SVGID_2_">
	<stop offset="0" style="stop-color:#9CD7FF"/>
	<stop offset="0.0039" style="stop-color:#9DD7FF"/>
	<stop offset="0.2273" style="stop-color:#BDE5FF"/>
	<stop offset="0.4138" style="stop-color:#D1EEFF"/>
	<stop offset="0.5394" style="stop-color:#D9F1FF"/>
	<stop offset="0.6155" style="stop-color:#D5EFFE"/>
	<stop offset="0.6891" style="stop-color:#C9E7FA"/>
	<stop offset="0.7617" style="stop-color:#B6DAF3"/>
	<stop offset="0.8337" style="stop-color:#9AC8EA"/>
	<stop offset="0.9052" style="stop-color:#77B0DD"/>
	<stop offset="0.9754" style="stop-color:#4D94CF"/>
	<stop offset="1" style="stop-color:#3C89C9"/>
</linearGradient>
<path fill="url(#svg2.SVGID_2_)" d="M19.625,36.763c10.839,0,19.625-1.875,19.625-4.188l-1.229-2c0,2.168-8.235,3.927-18.396,3.927  c-9.481,0-17.396-1.959-18.396-3.927l-1.229,2C0,34.888,8.787,36.763,19.625,36.763z"/>
<path fill="#3C89C9" d="M19.625,26.468c10.16,0,19.625,2.775,19.625,2.775c-0.375,2.721-5.367,5.438-19.554,5.438  c-12.125,0-18.467-2.484-19.541-4.918C-0.127,29.125,9.465,26.468,19.625,26.468z"/>
<linearGradient gradientTransform="matrix(1 0 0 -1 -642.8008 -939.4756)" x1="642.8008" x2="682.0508" gradientUnits="userSpaceOnUse" y1="-965.6948" y2="-965.6948" id="svg2.SVGID_3_">
	<stop offset="0" style="stop-color:#3C89C9"/>
	<stop offset="0.1482" style="stop-color:#60A6DD"/>
	<stop offset="0.3113" style="stop-color:#81C1F0"/>
	<stop offset="0.4476" style="stop-color:#95D1FB"/>
	<stop offset="0.5394" style="stop-color:#9CD7FF"/>
	<stop offset="0.636" style="stop-color:#98D4FD"/>
	<stop offset="0.7293" style="stop-color:#8DCAF6"/>
	<stop offset="0.8214" style="stop-color:#79BBEB"/>
	<stop offset="0.912" style="stop-color:#5EA5DC"/>
	<stop offset="1" style="stop-color:#3C89C9"/>
</linearGradient>
<path fill="url(#svg2.SVGID_3_)" d="M19.625,23.313C8.787,23.313,0,21.438,0,19.125v10c0,2.313,8.787,4.188,19.625,4.188  c10.839,0,19.625-1.875,19.625-4.188v-10C39.25,21.438,30.464,23.313,19.625,23.313z"/>
<linearGradient gradientTransform="matrix(1 0 0 -1 -642.8008 -939.4756)" x1="642.8008" x2="682.0508" gradientUnits="userSpaceOnUse" y1="-959.6948" y2="-959.6948" id="svg2.SVGID_4_">
	<stop offset="0" style="stop-color:#9CD7FF"/>
	<stop offset="0.0039" style="stop-color:#9DD7FF"/>
	<stop offset="0.2273" style="stop-color:#BDE5FF"/>
	<stop offset="0.4138" style="stop-color:#D1EEFF"/>
	<stop offset="0.5394" style="stop-color:#D9F1FF"/>
	<stop offset="0.6155" style="stop-color:#D5EFFE"/>
	<stop offset="0.6891" style="stop-color:#C9E7FA"/>
	<stop offset="0.7617" style="stop-color:#B6DAF3"/>
	<stop offset="0.8337" style="stop-color:#9AC8EA"/>
	<stop offset="0.9052" style="stop-color:#77B0DD"/>
	<stop offset="0.9754" style="stop-color:#4D94CF"/>
	<stop offset="1" style="stop-color:#3C89C9"/>
</linearGradient>
<path fill="url(#svg2.SVGID_4_)" d="M19.625,23.313c10.839,0,19.625-1.875,19.625-4.188l-1.229-2c0,2.168-8.235,3.926-18.396,3.926  c-9.481,0-17.396-1.959-18.396-3.926l-1.229,2C0,21.438,8.787,23.313,19.625,23.313z"/>
<path fill="#3C89C9" d="M19.476,13.019c10.161,0,19.625,2.775,19.625,2.775c-0.375,2.721-5.367,5.438-19.555,5.438  c-12.125,0-18.467-2.485-19.541-4.918C-0.277,15.674,9.316,13.019,19.476,13.019z"/>
<linearGradient gradientTransform="matrix(1 0 0 -1 -642.8008 -939.4756)" x1="642.8008" x2="682.0508" gradientUnits="userSpaceOnUse" y1="-952.4946" y2="-952.4946" id="svg2.SVGID_5_">
	<stop offset="0" style="stop-color:#3C89C9"/>
	<stop offset="0.1482" style="stop-color:#60A6DD"/>
	<stop offset="0.3113" style="stop-color:#81C1F0"/>
	<stop offset="0.4476" style="stop-color:#95D1FB"/>
	<stop offset="0.5394" style="stop-color:#9CD7FF"/>
	<stop offset="0.636" style="stop-color:#98D4FD"/>
	<stop offset="0.7293" style="stop-color:#8DCAF6"/>
	<stop offset="0.8214" style="stop-color:#79BBEB"/>
	<stop offset="0.912" style="stop-color:#5EA5DC"/>
	<stop offset="1" style="stop-color:#3C89C9"/>
</linearGradient>
<path fill="url(#svg2.SVGID_5_)" d="M19.625,10.113C8.787,10.113,0,8.238,0,5.925v10c0,2.313,8.787,4.188,19.625,4.188  c10.839,0,19.625-1.875,19.625-4.188v-10C39.25,8.238,30.464,10.113,19.625,10.113z"/>
<linearGradient gradientTransform="matrix(1 0 0 -1 -642.8008 -939.4756)" x1="642.8008" x2="682.0508" gradientUnits="userSpaceOnUse" y1="-946.4946" y2="-946.4946" id="svg2.SVGID_6_">
	<stop offset="0" style="stop-color:#9CD7FF"/>
	<stop offset="0.0039" style="stop-color:#9DD7FF"/>
	<stop offset="0.2273" style="stop-color:#BDE5FF"/>
	<stop offset="0.4138" style="stop-color:#D1EEFF"/>
	<stop offset="0.5394" style="stop-color:#D9F1FF"/>
	<stop offset="0.6155" style="stop-color:#D5EFFE"/>
	<stop offset="0.6891" style="stop-color:#C9E7FA"/>
	<stop offset="0.7617" style="stop-color:#B6DAF3"/>
	<stop offset="0.8337" style="stop-color:#9AC8EA"/>
	<stop offset="0.9052" style="stop-color:#77B0DD"/>
	<stop offset="0.9754" style="stop-color:#4D94CF"/>
	<stop offset="1" style="stop-color:#3C89C9"/>
</linearGradient>
<path fill="url(#svg2.SVGID_6_)" d="M19.625,10.113c10.839,0,19.625-1.875,19.625-4.188l-1.229-2c0,2.168-8.235,3.926-18.396,3.926  c-9.481,0-17.396-1.959-18.396-3.926L0,5.925C0,8.238,8.787,10.113,19.625,10.113z"/>
<linearGradient gradientTransform="matrix(1 0 0 -1 -642.8008 -939.4756)" x1="644.0293" x2="680.8223" gradientUnits="userSpaceOnUse" y1="-943.4014" y2="-943.4014" id="svg2.SVGID_7_">
	<stop offset="0" style="stop-color:#9CD7FF"/>
	<stop offset="1" style="stop-color:#3C89C9"/>
</linearGradient>
<ellipse rx="18.396" fill="url(#svg2.SVGID_7_)" ry="3.926" cx="19.625" cy="3.926"/>
<path fill="#FFFFFF" d="M31.04,45.982c0,0-4.354,0.664-7.29,0.781  c-3.125,0.125-8.952,0-8.952,0l-2.384-10.292l0.044-2.108l-1.251-1.154L9.789,23.024l-0.082-0.119L9.5,20.529l-1.65-1.254  L5.329,8.793c0,0,4.213,0.903,7.234,1.07s8.375,0.25,8.375,0.25l3,9.875l-0.25,1.313l1.063,2.168l2.312,9.645l-0.521,1.416  l1.46,1.834L31.04,45.982z" enable-background="new    " opacity="0.24"/>
</svg>
      </g>
    </g>
    <g text-rendering="geometricPrecision" shape-rendering="geometricPrecision" transform="matrix(1,0,0,1,408.6385,22.669)">
      <g clip-path="url(#clipPath5)">
        <svg xml:space="preserve" opacity="1" writing-mode="lr-tb" stop-color="rgb(0, 0, 0)" shape-rendering="auto" glyph-orientation-horizontal="0deg" color-profile="auto" lighting-color="rgb(255, 255, 255)" color="rgb(0, 0, 0)" font-weight="400" alignment-baseline="auto" font-style="normal" version="1.1" color-interpolation-filters="linearrgb" text-anchor="start" stroke-linecap="butt" color-interpolation="srgb" font-variant="normal" word-spacing="normal" fill-opacity="1" text-rendering="auto" clip-path="none" text-decoration="none" letter-spacing="normal" viewBox="-0.875 -0.887 41 48" glyph-orientation-vertical="auto" display="inline" font-size-adjust="none" overflow="visible" fill="rgb(0, 0, 0)" font-stretch="normal" stroke-dasharray="none" stroke-miterlimit="4" stop-opacity="1" color-rendering="auto" font-size="12" pointer-events="visiblepainted" mask="none" direction="ltr" baseline-shift="baseline" enable-background="new -0.875 -0.887 41 48" fill-rule="nonzero" image-rendering="auto" stroke-dashoffset="0" width="41px" marker-end="none" clip="auto" cursor="auto" stroke="none" filter="none" visibility="visible" kerning="auto" stroke-width="1" font-family="&quot;Arial&quot;,&quot;Helvetica&quot;,sans-serif" flood-opacity="1" clip-rule="nonzero" src="none" height="48px" unicode-bidi="normal" stroke-linejoin="miter" stroke-opacity="1" flood-color="rgb(0, 0, 0)" dominant-baseline="auto" marker-start="none" x="0px" marker-mid="none" y="0px">
<defs>
</defs>
<linearGradient gradientTransform="matrix(1 0 0 -1 -642.8008 -939.4756)" x1="642.8008" x2="682.0508" gradientUnits="userSpaceOnUse" y1="-979.1445" y2="-979.1445" id="svg3.SVGID_1_">
	<stop offset="0" style="stop-color:#3C89C9"/>
	<stop offset="0.1482" style="stop-color:#60A6DD"/>
	<stop offset="0.3113" style="stop-color:#81C1F0"/>
	<stop offset="0.4476" style="stop-color:#95D1FB"/>
	<stop offset="0.5394" style="stop-color:#9CD7FF"/>
	<stop offset="0.636" style="stop-color:#98D4FD"/>
	<stop offset="0.7293" style="stop-color:#8DCAF6"/>
	<stop offset="0.8214" style="stop-color:#79BBEB"/>
	<stop offset="0.912" style="stop-color:#5EA5DC"/>
	<stop offset="1" style="stop-color:#3C89C9"/>
</linearGradient>
<path fill="url(#svg3.SVGID_1_)" d="M19.625,36.763C8.787,36.763,0,34.888,0,32.575v10c0,2.313,8.787,4.188,19.625,4.188  c10.839,0,19.625-1.875,19.625-4.188v-10C39.25,34.888,30.464,36.763,19.625,36.763z"/>
<linearGradient gradientTransform="matrix(1 0 0 -1 -642.8008 -939.4756)" x1="642.8008" x2="682.0508" gradientUnits="userSpaceOnUse" y1="-973.1445" y2="-973.1445" id="svg3.SVGID_2_">
	<stop offset="0" style="stop-color:#9CD7FF"/>
	<stop offset="0.0039" style="stop-color:#9DD7FF"/>
	<stop offset="0.2273" style="stop-color:#BDE5FF"/>
	<stop offset="0.4138" style="stop-color:#D1EEFF"/>
	<stop offset="0.5394" style="stop-color:#D9F1FF"/>
	<stop offset="0.6155" style="stop-color:#D5EFFE"/>
	<stop offset="0.6891" style="stop-color:#C9E7FA"/>
	<stop offset="0.7617" style="stop-color:#B6DAF3"/>
	<stop offset="0.8337" style="stop-color:#9AC8EA"/>
	<stop offset="0.9052" style="stop-color:#77B0DD"/>
	<stop offset="0.9754" style="stop-color:#4D94CF"/>
	<stop offset="1" style="stop-color:#3C89C9"/>
</linearGradient>
<path fill="url(#svg3.SVGID_2_)" d="M19.625,36.763c10.839,0,19.625-1.875,19.625-4.188l-1.229-2c0,2.168-8.235,3.927-18.396,3.927  c-9.481,0-17.396-1.959-18.396-3.927l-1.229,2C0,34.888,8.787,36.763,19.625,36.763z"/>
<path fill="#3C89C9" d="M19.625,26.468c10.16,0,19.625,2.775,19.625,2.775c-0.375,2.721-5.367,5.438-19.554,5.438  c-12.125,0-18.467-2.484-19.541-4.918C-0.127,29.125,9.465,26.468,19.625,26.468z"/>
<linearGradient gradientTransform="matrix(1 0 0 -1 -642.8008 -939.4756)" x1="642.8008" x2="682.0508" gradientUnits="userSpaceOnUse" y1="-965.6948" y2="-965.6948" id="svg3.SVGID_3_">
	<stop offset="0" style="stop-color:#3C89C9"/>
	<stop offset="0.1482" style="stop-color:#60A6DD"/>
	<stop offset="0.3113" style="stop-color:#81C1F0"/>
	<stop offset="0.4476" style="stop-color:#95D1FB"/>
	<stop offset="0.5394" style="stop-color:#9CD7FF"/>
	<stop offset="0.636" style="stop-color:#98D4FD"/>
	<stop offset="0.7293" style="stop-color:#8DCAF6"/>
	<stop offset="0.8214" style="stop-color:#79BBEB"/>
	<stop offset="0.912" style="stop-color:#5EA5DC"/>
	<stop offset="1" style="stop-color:#3C89C9"/>
</linearGradient>
<path fill="url(#svg3.SVGID_3_)" d="M19.625,23.313C8.787,23.313,0,21.438,0,19.125v10c0,2.313,8.787,4.188,19.625,4.188  c10.839,0,19.625-1.875,19.625-4.188v-10C39.25,21.438,30.464,23.313,19.625,23.313z"/>
<linearGradient gradientTransform="matrix(1 0 0 -1 -642.8008 -939.4756)" x1="642.8008" x2="682.0508" gradientUnits="userSpaceOnUse" y1="-959.6948" y2="-959.6948" id="svg3.SVGID_4_">
	<stop offset="0" style="stop-color:#9CD7FF"/>
	<stop offset="0.0039" style="stop-color:#9DD7FF"/>
	<stop offset="0.2273" style="stop-color:#BDE5FF"/>
	<stop offset="0.4138" style="stop-color:#D1EEFF"/>
	<stop offset="0.5394" style="stop-color:#D9F1FF"/>
	<stop offset="0.6155" style="stop-color:#D5EFFE"/>
	<stop offset="0.6891" style="stop-color:#C9E7FA"/>
	<stop offset="0.7617" style="stop-color:#B6DAF3"/>
	<stop offset="0.8337" style="stop-color:#9AC8EA"/>
	<stop offset="0.9052" style="stop-color:#77B0DD"/>
	<stop offset="0.9754" style="stop-color:#4D94CF"/>
	<stop offset="1" style="stop-color:#3C89C9"/>
</linearGradient>
<path fill="url(#svg3.SVGID_4_)" d="M19.625,23.313c10.839,0,19.625-1.875,19.625-4.188l-1.229-2c0,2.168-8.235,3.926-18.396,3.926  c-9.481,0-17.396-1.959-18.396-3.926l-1.229,2C0,21.438,8.787,23.313,19.625,23.313z"/>
<path fill="#3C89C9" d="M19.476,13.019c10.161,0,19.625,2.775,19.625,2.775c-0.375,2.721-5.367,5.438-19.555,5.438  c-12.125,0-18.467-2.485-19.541-4.918C-0.277,15.674,9.316,13.019,19.476,13.019z"/>
<linearGradient gradientTransform="matrix(1 0 0 -1 -642.8008 -939.4756)" x1="642.8008" x2="682.0508" gradientUnits="userSpaceOnUse" y1="-952.4946" y2="-952.4946" id="svg3.SVGID_5_">
	<stop offset="0" style="stop-color:#3C89C9"/>
	<stop offset="0.1482" style="stop-color:#60A6DD"/>
	<stop offset="0.3113" style="stop-color:#81C1F0"/>
	<stop offset="0.4476" style="stop-color:#95D1FB"/>
	<stop offset="0.5394" style="stop-color:#9CD7FF"/>
	<stop offset="0.636" style="stop-color:#98D4FD"/>
	<stop offset="0.7293" style="stop-color:#8DCAF6"/>
	<stop offset="0.8214" style="stop-color:#79BBEB"/>
	<stop offset="0.912" style="stop-color:#5EA5DC"/>
	<stop offset="1" style="stop-color:#3C89C9"/>
</linearGradient>
<path fill="url(#svg3.SVGID_5_)" d="M19.625,10.113C8.787,10.113,0,8.238,0,5.925v10c0,2.313,8.787,4.188,19.625,4.188  c10.839,0,19.625-1.875,19.625-4.188v-10C39.25,8.238,30.464,10.113,19.625,10.113z"/>
<linearGradient gradientTransform="matrix(1 0 0 -1 -642.8008 -939.4756)" x1="642.8008" x2="682.0508" gradientUnits="userSpaceOnUse" y1="-946.4946" y2="-946.4946" id="svg3.SVGID_6_">
	<stop offset="0" style="stop-color:#9CD7FF"/>
	<stop offset="0.0039" style="stop-color:#9DD7FF"/>
	<stop offset="0.2273" style="stop-color:#BDE5FF"/>
	<stop offset="0.4138" style="stop-color:#D1EEFF"/>
	<stop offset="0.5394" style="stop-color:#D9F1FF"/>
	<stop offset="0.6155" style="stop-color:#D5EFFE"/>
	<stop offset="0.6891" style="stop-color:#C9E7FA"/>
	<stop offset="0.7617" style="stop-color:#B6DAF3"/>
	<stop offset="0.8337" style="stop-color:#9AC8EA"/>
	<stop offset="0.9052" style="stop-color:#77B0DD"/>
	<stop offset="0.9754" style="stop-color:#4D94CF"/>
	<stop offset="1" style="stop-color:#3C89C9"/>
</linearGradient>
<path fill="url(#svg3.SVGID_6_)" d="M19.625,10.113c10.839,0,19.625-1.875,19.625-4.188l-1.229-2c0,2.168-8.235,3.926-18.396,3.926  c-9.481,0-17.396-1.959-18.396-3.926L0,5.925C0,8.238,8.787,10.113,19.625,10.113z"/>
<linearGradient gradientTransform="matrix(1 0 0 -1 -642.8008 -939.4756)" x1="644.0293" x2="680.8223" gradientUnits="userSpaceOnUse" y1="-943.4014" y2="-943.4014" id="svg3.SVGID_7_">
	<stop offset="0" style="stop-color:#9CD7FF"/>
	<stop offset="1" style="stop-color:#3C89C9"/>
</linearGradient>
<ellipse rx="18.396" fill="url(#svg3.SVGID_7_)" ry="3.926" cx="19.625" cy="3.926"/>
<path fill="#FFFFFF" d="M31.04,45.982c0,0-4.354,0.664-7.29,0.781  c-3.125,0.125-8.952,0-8.952,0l-2.384-10.292l0.044-2.108l-1.251-1.154L9.789,23.024l-0.082-0.119L9.5,20.529l-1.65-1.254  L5.329,8.793c0,0,4.213,0.903,7.234,1.07s8.375,0.25,8.375,0.25l3,9.875l-0.25,1.313l1.063,2.168l2.312,9.645l-0.521,1.416  l1.46,1.834L31.04,45.982z" enable-background="new    " opacity="0.24"/>
</svg>
      </g>
    </g>
    <g text-rendering="geometricPrecision" shape-rendering="geometricPrecision" transform="matrix(1,0,0,1,15.5,141.556)">
      <g clip-path="url(#clipPath6)">
        <svg xml:space="preserve" opacity="1" writing-mode="lr-tb" stop-color="rgb(0, 0, 0)" shape-rendering="auto" glyph-orientation-horizontal="0deg" color-profile="auto" lighting-color="rgb(255, 255, 255)" color="rgb(0, 0, 0)" font-weight="400" alignment-baseline="auto" font-style="normal" version="1.1" color-interpolation-filters="linearrgb" text-anchor="start" stroke-linecap="butt" color-interpolation="srgb" font-variant="normal" word-spacing="normal" fill-opacity="1" text-rendering="auto" clip-path="none" text-decoration="none" letter-spacing="normal" viewBox="0 0 23 38" glyph-orientation-vertical="auto" display="inline" font-size-adjust="none" overflow="visible" fill="rgb(0, 0, 0)" font-stretch="normal" stroke-dasharray="none" stroke-miterlimit="4" stop-opacity="1" color-rendering="auto" font-size="12" pointer-events="visiblepainted" mask="none" direction="ltr" baseline-shift="baseline" enable-background="new 0 0 23 38" fill-rule="nonzero" image-rendering="auto" stroke-dashoffset="0" width="23px" marker-end="none" clip="auto" cursor="auto" stroke="none" filter="none" visibility="visible" kerning="auto" stroke-width="1" font-family="&quot;Arial&quot;,&quot;Helvetica&quot;,sans-serif" flood-opacity="1" clip-rule="nonzero" src="none" height="38px" unicode-bidi="normal" stroke-linejoin="miter" stroke-opacity="1" flood-color="rgb(0, 0, 0)" dominant-baseline="auto" marker-start="none" x="0px" marker-mid="none" y="0px">
<defs>
</defs>
<g>
	<path fill="#C5C5C5" d="M23,35.916C23,37.063,22.063,38,20.916,38H2.084C0.938,38,0,37.063,0,35.916V2.084C0,0.938,0.938,0,2.084,0   h18.832C22.063,0,23,0.938,23,2.084V35.916z"/>
</g>
<g>
	<linearGradient y2="2.0005" id="svg4.SVGID_1_" x1="11.5005" gradientUnits="userSpaceOnUse" x2="11.5005" y1="34">
		<stop offset="0" style="stop-color:#515151"/>
		<stop offset="1" style="stop-color:#848484"/>
	</linearGradient>
	<path fill="url(#svg4.SVGID_1_)" d="M22,32.184C22,33.187,21.187,34,20.184,34H2.816C1.813,34,1,33.187,1,32.184V3.816   C1,2.813,1.813,2,2.816,2h17.367C21.187,2,22,2.813,22,3.816V32.184z"/>
</g>
<radialGradient gradientTransform="matrix(1 0 0 0.9565 0 1.1737)" id="svg4.SVGID_2_" r="23.5037" cx="11.5" gradientUnits="userSpaceOnUse" cy="4.1665">
	<stop offset="0" style="stop-color:#9CD7FF"/>
	<stop offset="1" style="stop-color:#3C89C9"/>
</radialGradient>
<rect x="2" fill="url(#svg4.SVGID_2_)" width="19" y="5" height="22"/>
<linearGradient y2="29.334" id="svg4.SVGID_3_" x1="11.5835" gradientUnits="userSpaceOnUse" x2="11.5835" y1="31.5">
	<stop offset="0" style="stop-color:#B8B8B8"/>
	<stop offset="1" style="stop-color:#F2F2F2"/>
</linearGradient>
<ellipse rx="1.5" fill="url(#svg4.SVGID_3_)" ry="1.083" cx="11.583" cy="30.417"/>
<linearGradient y2="29.6631" id="svg4.SVGID_4_" x1="15.334" gradientUnits="userSpaceOnUse" x2="15.334" y1="31.1709">
	<stop offset="0" style="stop-color:#B8B8B8"/>
	<stop offset="1" style="stop-color:#F2F2F2"/>
</linearGradient>
<ellipse rx="1.043" fill="url(#svg4.SVGID_4_)" ry="0.754" cx="15.333" cy="30.417"/>
<linearGradient y2="29.6631" id="svg4.SVGID_5_" x1="19.084" gradientUnits="userSpaceOnUse" x2="19.084" y1="31.1709">
	<stop offset="0" style="stop-color:#B8B8B8"/>
	<stop offset="1" style="stop-color:#F2F2F2"/>
</linearGradient>
<ellipse rx="1.043" fill="url(#svg4.SVGID_5_)" ry="0.754" cx="19.083" cy="30.417"/>
<linearGradient y2="29.6631" id="svg4.SVGID_6_" x1="4.0835" gradientUnits="userSpaceOnUse" x2="4.0835" y1="31.1709">
	<stop offset="0" style="stop-color:#B8B8B8"/>
	<stop offset="1" style="stop-color:#F2F2F2"/>
</linearGradient>
<ellipse rx="1.043" fill="url(#svg4.SVGID_6_)" ry="0.754" cx="4.083" cy="30.417"/>
<linearGradient y2="29.6631" id="svg4.SVGID_7_" x1="7.8335" gradientUnits="userSpaceOnUse" x2="7.8335" y1="31.1709">
	<stop offset="0" style="stop-color:#B8B8B8"/>
	<stop offset="1" style="stop-color:#F2F2F2"/>
</linearGradient>
<ellipse rx="1.043" fill="url(#svg4.SVGID_7_)" ry="0.754" cx="7.833" cy="30.417"/>
<linearGradient y2="2.4658" id="svg4.SVGID_8_" x1="11.0835" gradientUnits="userSpaceOnUse" x2="11.0835" y1="4.3682">
	<stop offset="0" style="stop-color:#B8B8B8"/>
	<stop offset="1" style="stop-color:#A2A2A2"/>
</linearGradient>
<ellipse rx="1.063" fill="url(#svg4.SVGID_8_)" ry="0.951" cx="11.083" cy="3.417"/>
<linearGradient y2="2.918" id="svg4.SVGID_9_" x1="11.0835" gradientUnits="userSpaceOnUse" x2="11.0835" y1="3.916">
	<stop offset="0" style="stop-color:#9CD7FF"/>
	<stop offset="1" style="stop-color:#F2F2F2"/>
</linearGradient>
<ellipse rx="0.558" fill="url(#svg4.SVGID_9_)" ry="0.499" cx="11.083" cy="3.417"/>
<path fill="#F2F2F2" opacity="0.24" d="M20.938,15.065c0,0-6.654,2.879-10.771,4.019C6.05,20.223,2,21.125,2,21.125V5h19  L20.938,15.065z"/>
</svg>
      </g>
    </g>
    <g stroke-linecap="butt" transform="matrix(1,0,0,1,-238,-218)" fill="white" text-rendering="geometricPrecision" shape-rendering="geometricPrecision" stroke="white" stroke-width="4" stroke-miterlimit="1.45">
      <path fill="none" d="M491.5302 380.831 L503.4559 382.2018 L533.0864 389.1788 L560.6278 399.4873 L586.0803 413.1271 L609.4437 430.0983 L630.7181 450.4008 L646.3193 469.6194 L646.3729 469.7039" clip-path="url(#clipPath2)"/>
    </g>
    <g stroke-linecap="butt" transform="matrix(1,0,0,1,-238,-218)" fill="white" text-rendering="geometricPrecision" shape-rendering="geometricPrecision" stroke="white" stroke-width="4" stroke-miterlimit="1.45">
      <path d="M652.817 478.6186 L648.7225 461.2189 L645.5673 468.5895 L637.579 469.2741 Z" stroke="none" clip-path="url(#clipPath2)"/>
      <text x="535.4887" y="448.1271" clip-path="url(#clipPath2)" font-family="sans-serif" stroke="none" stroke-width="1" xml:space="preserve">Query #2-11</text>
      <path fill="none" d="M647.2258 504.8371 L629.1998 507.0515 L611.7345 507.7889 L595.2259 507.0009 L579.6738 504.6874 L565.0784 500.8484 L551.4395 495.4839 L538.7573 488.5939 L527.0316 480.1784 L516.2625 470.2374 L506.45 458.7709 L497.5941 445.7789 L489.6949 431.2614 L482.7695 415.2585 L482.7372 415.1638" stroke-width="7" clip-path="url(#clipPath2)"/>
      <path d="M478.2186 401.9131 L476.7148 424.6134 L483.302 416.8202 L493.2782 418.9651 Z" stroke-width="7" clip-path="url(#clipPath2)" stroke="none"/>
      <text x="487.5404" y="522.9896" clip-path="url(#clipPath2)" font-family="sans-serif" stroke="none" stroke-width="1" xml:space="preserve">Response #2-11</text>
      <path fill="none" d="M479.1351 355.133 L483.7243 343.0046 L491.0489 327.5171 L499.2607 313.5551 L508.3596 301.1186 L518.3456 290.2076 L529.2189 280.8221 L540.9793 272.9622 L553.6268 266.6277 L567.1616 261.8186 L581.5834 258.5351 L596.8924 256.7771 L613.0886 256.5446 L630.1719 257.8376 L639.3616 259.2788" stroke-width="1" clip-path="url(#clipPath2)"/>
      <path d="M647.265 260.5184 L636.1846 253.7194 L638.3737 259.1239 L634.6351 263.5987 Z" stroke-width="1" clip-path="url(#clipPath2)" stroke="none"/>
      <text x="512.2839" y="247.557" clip-path="url(#clipPath2)" font-family="sans-serif" stroke="none" stroke-width="1" xml:space="preserve">Query #1</text>
      <path fill="none" d="M649.0036 286.4348 L647.7034 287.9836 L626.9464 308.456 L604.729 326.4172 L581.0513 341.8673 L555.9131 354.8062 L529.3146 365.2339 L502.2849 372.8602 L502.1865 372.8782" clip-path="url(#clipPath2)"/>
      <path d="M491.3851 374.959 L508.8877 378.5887 L503.5367 372.6181 L506.2867 365.0869 Z" clip-path="url(#clipPath2)" stroke="none"/>
      <text x="533.9893" y="314.9136" clip-path="url(#clipPath2)" font-family="sans-serif" stroke="none" stroke-width="1" xml:space="preserve">Response #1</text>
      <path fill="none" d="M284.4825 378.556 L443.9537 378.556" stroke-width="1" clip-path="url(#clipPath2)"/>
      <path d="M276.4825 378.556 L288.4825 383.556 L285.4825 378.556 L288.4825 373.556 Z" stroke-width="1" clip-path="url(#clipPath2)" stroke="none"/>
      <path d="M451.9537 378.556 L439.9537 373.556 L442.9537 378.556 L439.9537 383.556 Z" stroke-width="1" clip-path="url(#clipPath2)" stroke="none"/>
    </g>
  </g>
</svg>
