<?xml version="1.0" encoding="utf-8"?>
<!-- Generator: Adobe Illustrator 19.1.0, SVG Export Plug-In . SVG Version: 6.00 Build 0)  -->
<svg version="1.1" id="Layer_1" xmlns="http://www.w3.org/2000/svg" xmlns:xlink="http://www.w3.org/1999/xlink" x="0px" y="0px" viewBox="-40 0 296.2 43" style="enable-background:new 0 0 216.2 43;" xml:space="preserve">
<style type="text/css">
    .st0{
  fill:#F08300;
}
.st2{opacity:0.45;}
    .st3{fill:#FFFFFF;opacity:0.0;}
.move {
  transform-origin: 50% 50%;
  stroke: #10579E;
  stroke-linecap: round;
  transform: scale(3.5) translateX(-95%) translateY(-25%); stroke-width: 0.6%;
}
</style>
<g transform="translate(35,0)">
    <g>
        <path class="move st0" d="M176.4,31.8l-2.3-1.2l2.3-1.2c0.4-0.2,0.5-0.6,0.3-1l-0.5-0.9c-0.2-0.4-0.6-0.5-1-0.3l-2.7,1.4v-3
                  c0-0.4-0.3-0.7-0.7-0.7h-1.1c-0.4,0-0.7,0.3-0.7,0.7v3l-2.7-1.4c-0.4-0.2-0.8,0-1,0.3l-0.5,0.9c-0.2,0.4,0,0.8,0.3,1l2.3,1.2
                  l-2.3,1.2c-0.4,0.2-0.5,0.6-0.3,1l0.5,0.9c0.2,0.4,0.6,0.5,1,0.3l2.7-1.4v3c0,0.4,0.3,0.7,0.7,0.7h1.1c0.4,0,0.7-0.3,0.7-0.7v-3
                  l2.7,1.4c0.4,0.2,0.8,0,1-0.3l0.5-0.9C176.9,32.4,176.7,32,176.4,31.8z"/>
        <g class="code">
            <circle class="st0" cx="110.5" cy="38" r="2.9"/>
            <path class="st0" d="M13.8,5.5h1.9c2.1,0,4,1,5.6,3c0.3,0.5,1,0.5,1.5,0.3L24.3,8c0.4-0.2,0.6-0.5,0.7-0.8c0.1-0.3,0-0.7-0.2-1
                c-0.6-1-1.5-1.8-2.4-2.4c-1.8-1.3-4.1-2-6.8-2h-1.9c-6.4,0-10.6,4-10.6,10.1v19.6c0,6.1,4.3,10.1,10.6,10.1h1.9
                c2.9,0,5.3-0.7,7.1-2.2c0.8-0.6,1.5-1.4,2.1-2.3c0.2-0.3,0.3-0.6,0.2-1c-0.1-0.4-0.4-0.7-0.8-0.9l-1.5-0.7
                c-0.6-0.3-1.1-0.2-1.5,0.3c-1.4,2-3.3,3-5.5,3h-1.9c-3.5,0-6.3-2.8-6.3-6.4V11.8C7.5,8.2,10.1,5.5,13.8,5.5z"/>
            <path class="st0" d="M91.3,19.5c-0.8,0-1.3,0.5-1.3,1.3v1.1c0,0.8,0.5,1.3,1.3,1.3h9c0.8,0,1.3-0.5,1.3-1.3v-1.1
                c0-0.8-0.5-1.3-1.3-1.3H91.3z"/>
            <path class="st0" d="M69.2,2.4H57.9c-0.8,0-1.3,0.5-1.3,1.3v36c0,0.8,0.5,1.3,1.3,1.3h11.2c6.6,0,10.8-4.2,10.8-10.8V13
                C80,6.6,75.7,2.4,69.2,2.4z M75.6,30.8c0,3.7-2.8,6.4-6.4,6.4h-7.3c-0.5,0-0.8-0.3-0.8-0.8V6.9c0-0.5,0.3-0.8,0.8-0.8h7.3
                c3.6,0,6.4,2.8,6.4,6.3V30.8z"/>
            <path class="st0" d="M88.2,6.1h15c0.8,0,1.3-0.5,1.3-1.3V3.7c0-0.8-0.5-1.3-1.3-1.3H84.3c-0.8,0-1.3,0.5-1.3,1.3v36
                c0,0.8,0.5,1.3,1.3,1.3h18.9c0.8,0,1.3-0.5,1.3-1.3v-1.2c0-0.8-0.5-1.3-1.3-1.3h-15c-0.5,0-0.8-0.3-0.8-0.8V6.9
                C87.4,6.4,87.7,6.1,88.2,6.1z"/>
            <path class="st0" d="M38.2,1.8L38.2,1.8c-6.4,0-10.7,4-10.7,10.1v8l-1.2,1.5l1.2,1.5v8.5c0,6.1,4.3,10.1,10.7,10.1
                c0.6,0,1-0.4,1-1.1v-1.6c0-0.6-0.4-1.1-1-1.1h-0.1c-3.4,0-6.3-3-6.3-6.4v-8.8l-1-1.2l1-1.2v-8.3c0-3.5,2.8-6.3,6.4-6.3
                c0,0,0,0,0,0c0,0,1,0,1-1.1V2.8C39.2,2.2,38.8,1.8,38.2,1.8z"/>
            <path class="st0" d="M53.6,19.8v-8c0-6-4.3-10.1-10.7-10.1h0c-0.6,0-1,0.5-1,1.1v1.6c0,1.1,1,1.1,1,1.1c0,0,0,0,0,0
                c3.6,0,6.4,2.8,6.4,6.3v8.3l1,1.2l-1,1.2v8.8c0,3.4-2.9,6.4-6.3,6.4h-0.1c-0.6,0-1,0.5-1,1.1v1.6c0,0.6,0.4,1.1,1,1.1
                c6.4,0,10.7-4.1,10.7-10.1v-8.5l1.2-1.5L53.6,19.8z"/>
        </g>
    </g>
</g>
</svg>