<?xml version="1.0" encoding="UTF-8"?><svg xmlns="http://www.w3.org/2000/svg" xmlns:xlink="http://www.w3.org/1999/xlink" fill-opacity="1" color-rendering="auto" color-interpolation="auto" text-rendering="auto" stroke="black" stroke-linecap="square" width="249" stroke-miterlimit="10" shape-rendering="auto" stroke-opacity="1" fill="black" stroke-dasharray="none" font-weight="normal" stroke-width="1" height="325" font-family="'Dialog'" font-style="normal" stroke-linejoin="miter" font-size="12px" stroke-dashoffset="0" image-rendering="auto">
  <!--Generated by ySVG 2.5-->
  <defs id="genericDefs"/>
  <g>
    <g text-rendering="geometricPrecision" shape-rendering="geometricPrecision" transform="matrix(1,0,0,1,15.5,141)">
      <g clip-path="url(#clipPath3)">
        <svg xml:space="preserve" opacity="1" writing-mode="lr-tb" stop-color="rgb(0, 0, 0)" shape-rendering="auto" glyph-orientation-horizontal="0deg" color-profile="auto" lighting-color="rgb(255, 255, 255)" color="rgb(0, 0, 0)" font-weight="400" alignment-baseline="auto" font-style="normal" version="1.1" color-interpolation-filters="linearrgb" text-anchor="start" stroke-linecap="butt" color-interpolation="srgb" font-variant="normal" word-spacing="normal" fill-opacity="1" text-rendering="auto" clip-path="none" text-decoration="none" letter-spacing="normal" viewBox="0 0 23 38" glyph-orientation-vertical="auto" display="inline" font-size-adjust="none" overflow="visible" fill="rgb(0, 0, 0)" font-stretch="normal" stroke-dasharray="none" stroke-miterlimit="4" stop-opacity="1" color-rendering="auto" font-size="12" pointer-events="visiblepainted" mask="none" direction="ltr" baseline-shift="baseline" enable-background="new 0 0 23 38" fill-rule="nonzero" image-rendering="auto" stroke-dashoffset="0" width="23px" marker-end="none" clip="auto" cursor="auto" stroke="none" filter="none" visibility="visible" kerning="auto" stroke-width="1" font-family="&quot;Arial&quot;,&quot;Helvetica&quot;,sans-serif" flood-opacity="1" clip-rule="nonzero" src="none" height="38px" unicode-bidi="normal" stroke-linejoin="miter" stroke-opacity="1" flood-color="rgb(0, 0, 0)" dominant-baseline="auto" marker-start="none" x="0px" marker-mid="none" y="0px">
<defs>
<clipPath clipPathUnits="userSpaceOnUse" id="clipPath1">
              <path d="M0 0 L249 0 L249 325 L0 325 L0 0 Z"/>
            </clipPath>
            <clipPath clipPathUnits="userSpaceOnUse" id="clipPath2">
              <path d="M205 223 L454 223 L454 548 L205 548 L205 223 Z"/>
            </clipPath>
            <clipPath clipPathUnits="userSpaceOnUse" id="clipPath3">
              <path d="M-15.5 -141 L233.5 -141 L233.5 184 L-15.5 184 L-15.5 -141 Z"/>
            </clipPath>
            <clipPath clipPathUnits="userSpaceOnUse" id="clipPath4">
              <path d="M-193.6385 -253.669 L55.3615 -253.669 L55.3615 71.331 L-193.6385 71.331 L-193.6385 -253.669 Z"/>
            </clipPath>
            <clipPath clipPathUnits="userSpaceOnUse" id="clipPath5">
              <path d="M-193.6385 -17.669 L55.3615 -17.669 L55.3615 307.331 L-193.6385 307.331 L-193.6385 -17.669 Z"/>
            </clipPath>
          </defs>
<g>
	<path fill="#C5C5C5" d="M23,35.916C23,37.063,22.063,38,20.916,38H2.084C0.938,38,0,37.063,0,35.916V2.084C0,0.938,0.938,0,2.084,0   h18.832C22.063,0,23,0.938,23,2.084V35.916z"/>
</g>
<g>
	<linearGradient y2="2.0005" id="svg1.SVGID_1_" x1="11.5005" gradientUnits="userSpaceOnUse" x2="11.5005" y1="34">
		<stop offset="0" style="stop-color:#515151"/>
		<stop offset="1" style="stop-color:#848484"/>
	</linearGradient>
	<path fill="url(#svg1.SVGID_1_)" d="M22,32.184C22,33.187,21.187,34,20.184,34H2.816C1.813,34,1,33.187,1,32.184V3.816   C1,2.813,1.813,2,2.816,2h17.367C21.187,2,22,2.813,22,3.816V32.184z"/>
</g>
<radialGradient gradientTransform="matrix(1 0 0 0.9565 0 1.1737)" id="svg1.SVGID_2_" r="23.5037" cx="11.5" gradientUnits="userSpaceOnUse" cy="4.1665">
	<stop offset="0" style="stop-color:#9CD7FF"/>
	<stop offset="1" style="stop-color:#3C89C9"/>
</radialGradient>
<rect x="2" fill="url(#svg1.SVGID_2_)" width="19" y="5" height="22"/>
<linearGradient y2="29.334" id="svg1.SVGID_3_" x1="11.5835" gradientUnits="userSpaceOnUse" x2="11.5835" y1="31.5">
	<stop offset="0" style="stop-color:#B8B8B8"/>
	<stop offset="1" style="stop-color:#F2F2F2"/>
</linearGradient>
<ellipse rx="1.5" fill="url(#svg1.SVGID_3_)" ry="1.083" cx="11.583" cy="30.417"/>
<linearGradient y2="29.6631" id="svg1.SVGID_4_" x1="15.334" gradientUnits="userSpaceOnUse" x2="15.334" y1="31.1709">
	<stop offset="0" style="stop-color:#B8B8B8"/>
	<stop offset="1" style="stop-color:#F2F2F2"/>
</linearGradient>
<ellipse rx="1.043" fill="url(#svg1.SVGID_4_)" ry="0.754" cx="15.333" cy="30.417"/>
<linearGradient y2="29.6631" id="svg1.SVGID_5_" x1="19.084" gradientUnits="userSpaceOnUse" x2="19.084" y1="31.1709">
	<stop offset="0" style="stop-color:#B8B8B8"/>
	<stop offset="1" style="stop-color:#F2F2F2"/>
</linearGradient>
<ellipse rx="1.043" fill="url(#svg1.SVGID_5_)" ry="0.754" cx="19.083" cy="30.417"/>
<linearGradient y2="29.6631" id="svg1.SVGID_6_" x1="4.0835" gradientUnits="userSpaceOnUse" x2="4.0835" y1="31.1709">
	<stop offset="0" style="stop-color:#B8B8B8"/>
	<stop offset="1" style="stop-color:#F2F2F2"/>
</linearGradient>
<ellipse rx="1.043" fill="url(#svg1.SVGID_6_)" ry="0.754" cx="4.083" cy="30.417"/>
<linearGradient y2="29.6631" id="svg1.SVGID_7_" x1="7.8335" gradientUnits="userSpaceOnUse" x2="7.8335" y1="31.1709">
	<stop offset="0" style="stop-color:#B8B8B8"/>
	<stop offset="1" style="stop-color:#F2F2F2"/>
</linearGradient>
<ellipse rx="1.043" fill="url(#svg1.SVGID_7_)" ry="0.754" cx="7.833" cy="30.417"/>
<linearGradient y2="2.4658" id="svg1.SVGID_8_" x1="11.0835" gradientUnits="userSpaceOnUse" x2="11.0835" y1="4.3682">
	<stop offset="0" style="stop-color:#B8B8B8"/>
	<stop offset="1" style="stop-color:#A2A2A2"/>
</linearGradient>
<ellipse rx="1.063" fill="url(#svg1.SVGID_8_)" ry="0.951" cx="11.083" cy="3.417"/>
<linearGradient y2="2.918" id="svg1.SVGID_9_" x1="11.0835" gradientUnits="userSpaceOnUse" x2="11.0835" y1="3.916">
	<stop offset="0" style="stop-color:#9CD7FF"/>
	<stop offset="1" style="stop-color:#F2F2F2"/>
</linearGradient>
<ellipse rx="0.558" fill="url(#svg1.SVGID_9_)" ry="0.499" cx="11.083" cy="3.417"/>
<path fill="#F2F2F2" opacity="0.24" d="M20.938,15.065c0,0-6.654,2.879-10.771,4.019C6.05,20.223,2,21.125,2,21.125V5h19  L20.938,15.065z"/>
</svg>
      </g>
    </g>
    <g text-rendering="geometricPrecision" shape-rendering="geometricPrecision" transform="matrix(1,0,0,1,193.6385,253.669)">
      <g clip-path="url(#clipPath4)">
        <svg xml:space="preserve" opacity="1" writing-mode="lr-tb" stop-color="rgb(0, 0, 0)" shape-rendering="auto" glyph-orientation-horizontal="0deg" color-profile="auto" lighting-color="rgb(255, 255, 255)" color="rgb(0, 0, 0)" font-weight="400" alignment-baseline="auto" font-style="normal" version="1.1" color-interpolation-filters="linearrgb" text-anchor="start" stroke-linecap="butt" color-interpolation="srgb" font-variant="normal" word-spacing="normal" fill-opacity="1" text-rendering="auto" clip-path="none" text-decoration="none" letter-spacing="normal" viewBox="-0.875 -0.887 41 48" glyph-orientation-vertical="auto" display="inline" font-size-adjust="none" overflow="visible" fill="rgb(0, 0, 0)" font-stretch="normal" stroke-dasharray="none" stroke-miterlimit="4" stop-opacity="1" color-rendering="auto" font-size="12" pointer-events="visiblepainted" mask="none" direction="ltr" baseline-shift="baseline" enable-background="new -0.875 -0.887 41 48" fill-rule="nonzero" image-rendering="auto" stroke-dashoffset="0" width="41px" marker-end="none" clip="auto" cursor="auto" stroke="none" filter="none" visibility="visible" kerning="auto" stroke-width="1" font-family="&quot;Arial&quot;,&quot;Helvetica&quot;,sans-serif" flood-opacity="1" clip-rule="nonzero" src="none" height="48px" unicode-bidi="normal" stroke-linejoin="miter" stroke-opacity="1" flood-color="rgb(0, 0, 0)" dominant-baseline="auto" marker-start="none" x="0px" marker-mid="none" y="0px">
<defs>
</defs>
<linearGradient gradientTransform="matrix(1 0 0 -1 -642.8008 -939.4756)" x1="642.8008" x2="682.0508" gradientUnits="userSpaceOnUse" y1="-979.1445" y2="-979.1445" id="svg2.SVGID_1_">
	<stop offset="0" style="stop-color:#3C89C9"/>
	<stop offset="0.1482" style="stop-color:#60A6DD"/>
	<stop offset="0.3113" style="stop-color:#81C1F0"/>
	<stop offset="0.4476" style="stop-color:#95D1FB"/>
	<stop offset="0.5394" style="stop-color:#9CD7FF"/>
	<stop offset="0.636" style="stop-color:#98D4FD"/>
	<stop offset="0.7293" style="stop-color:#8DCAF6"/>
	<stop offset="0.8214" style="stop-color:#79BBEB"/>
	<stop offset="0.912" style="stop-color:#5EA5DC"/>
	<stop offset="1" style="stop-color:#3C89C9"/>
</linearGradient>
<path fill="url(#svg2.SVGID_1_)" d="M19.625,36.763C8.787,36.763,0,34.888,0,32.575v10c0,2.313,8.787,4.188,19.625,4.188  c10.839,0,19.625-1.875,19.625-4.188v-10C39.25,34.888,30.464,36.763,19.625,36.763z"/>
<linearGradient gradientTransform="matrix(1 0 0 -1 -642.8008 -939.4756)" x1="642.8008" x2="682.0508" gradientUnits="userSpaceOnUse" y1="-973.1445" y2="-973.1445" id="svg2.SVGID_2_">
	<stop offset="0" style="stop-color:#9CD7FF"/>
	<stop offset="0.0039" style="stop-color:#9DD7FF"/>
	<stop offset="0.2273" style="stop-color:#BDE5FF"/>
	<stop offset="0.4138" style="stop-color:#D1EEFF"/>
	<stop offset="0.5394" style="stop-color:#D9F1FF"/>
	<stop offset="0.6155" style="stop-color:#D5EFFE"/>
	<stop offset="0.6891" style="stop-color:#C9E7FA"/>
	<stop offset="0.7617" style="stop-color:#B6DAF3"/>
	<stop offset="0.8337" style="stop-color:#9AC8EA"/>
	<stop offset="0.9052" style="stop-color:#77B0DD"/>
	<stop offset="0.9754" style="stop-color:#4D94CF"/>
	<stop offset="1" style="stop-color:#3C89C9"/>
</linearGradient>
<path fill="url(#svg2.SVGID_2_)" d="M19.625,36.763c10.839,0,19.625-1.875,19.625-4.188l-1.229-2c0,2.168-8.235,3.927-18.396,3.927  c-9.481,0-17.396-1.959-18.396-3.927l-1.229,2C0,34.888,8.787,36.763,19.625,36.763z"/>
<path fill="#3C89C9" d="M19.625,26.468c10.16,0,19.625,2.775,19.625,2.775c-0.375,2.721-5.367,5.438-19.554,5.438  c-12.125,0-18.467-2.484-19.541-4.918C-0.127,29.125,9.465,26.468,19.625,26.468z"/>
<linearGradient gradientTransform="matrix(1 0 0 -1 -642.8008 -939.4756)" x1="642.8008" x2="682.0508" gradientUnits="userSpaceOnUse" y1="-965.6948" y2="-965.6948" id="svg2.SVGID_3_">
	<stop offset="0" style="stop-color:#3C89C9"/>
	<stop offset="0.1482" style="stop-color:#60A6DD"/>
	<stop offset="0.3113" style="stop-color:#81C1F0"/>
	<stop offset="0.4476" style="stop-color:#95D1FB"/>
	<stop offset="0.5394" style="stop-color:#9CD7FF"/>
	<stop offset="0.636" style="stop-color:#98D4FD"/>
	<stop offset="0.7293" style="stop-color:#8DCAF6"/>
	<stop offset="0.8214" style="stop-color:#79BBEB"/>
	<stop offset="0.912" style="stop-color:#5EA5DC"/>
	<stop offset="1" style="stop-color:#3C89C9"/>
</linearGradient>
<path fill="url(#svg2.SVGID_3_)" d="M19.625,23.313C8.787,23.313,0,21.438,0,19.125v10c0,2.313,8.787,4.188,19.625,4.188  c10.839,0,19.625-1.875,19.625-4.188v-10C39.25,21.438,30.464,23.313,19.625,23.313z"/>
<linearGradient gradientTransform="matrix(1 0 0 -1 -642.8008 -939.4756)" x1="642.8008" x2="682.0508" gradientUnits="userSpaceOnUse" y1="-959.6948" y2="-959.6948" id="svg2.SVGID_4_">
	<stop offset="0" style="stop-color:#9CD7FF"/>
	<stop offset="0.0039" style="stop-color:#9DD7FF"/>
	<stop offset="0.2273" style="stop-color:#BDE5FF"/>
	<stop offset="0.4138" style="stop-color:#D1EEFF"/>
	<stop offset="0.5394" style="stop-color:#D9F1FF"/>
	<stop offset="0.6155" style="stop-color:#D5EFFE"/>
	<stop offset="0.6891" style="stop-color:#C9E7FA"/>
	<stop offset="0.7617" style="stop-color:#B6DAF3"/>
	<stop offset="0.8337" style="stop-color:#9AC8EA"/>
	<stop offset="0.9052" style="stop-color:#77B0DD"/>
	<stop offset="0.9754" style="stop-color:#4D94CF"/>
	<stop offset="1" style="stop-color:#3C89C9"/>
</linearGradient>
<path fill="url(#svg2.SVGID_4_)" d="M19.625,23.313c10.839,0,19.625-1.875,19.625-4.188l-1.229-2c0,2.168-8.235,3.926-18.396,3.926  c-9.481,0-17.396-1.959-18.396-3.926l-1.229,2C0,21.438,8.787,23.313,19.625,23.313z"/>
<path fill="#3C89C9" d="M19.476,13.019c10.161,0,19.625,2.775,19.625,2.775c-0.375,2.721-5.367,5.438-19.555,5.438  c-12.125,0-18.467-2.485-19.541-4.918C-0.277,15.674,9.316,13.019,19.476,13.019z"/>
<linearGradient gradientTransform="matrix(1 0 0 -1 -642.8008 -939.4756)" x1="642.8008" x2="682.0508" gradientUnits="userSpaceOnUse" y1="-952.4946" y2="-952.4946" id="svg2.SVGID_5_">
	<stop offset="0" style="stop-color:#3C89C9"/>
	<stop offset="0.1482" style="stop-color:#60A6DD"/>
	<stop offset="0.3113" style="stop-color:#81C1F0"/>
	<stop offset="0.4476" style="stop-color:#95D1FB"/>
	<stop offset="0.5394" style="stop-color:#9CD7FF"/>
	<stop offset="0.636" style="stop-color:#98D4FD"/>
	<stop offset="0.7293" style="stop-color:#8DCAF6"/>
	<stop offset="0.8214" style="stop-color:#79BBEB"/>
	<stop offset="0.912" style="stop-color:#5EA5DC"/>
	<stop offset="1" style="stop-color:#3C89C9"/>
</linearGradient>
<path fill="url(#svg2.SVGID_5_)" d="M19.625,10.113C8.787,10.113,0,8.238,0,5.925v10c0,2.313,8.787,4.188,19.625,4.188  c10.839,0,19.625-1.875,19.625-4.188v-10C39.25,8.238,30.464,10.113,19.625,10.113z"/>
<linearGradient gradientTransform="matrix(1 0 0 -1 -642.8008 -939.4756)" x1="642.8008" x2="682.0508" gradientUnits="userSpaceOnUse" y1="-946.4946" y2="-946.4946" id="svg2.SVGID_6_">
	<stop offset="0" style="stop-color:#9CD7FF"/>
	<stop offset="0.0039" style="stop-color:#9DD7FF"/>
	<stop offset="0.2273" style="stop-color:#BDE5FF"/>
	<stop offset="0.4138" style="stop-color:#D1EEFF"/>
	<stop offset="0.5394" style="stop-color:#D9F1FF"/>
	<stop offset="0.6155" style="stop-color:#D5EFFE"/>
	<stop offset="0.6891" style="stop-color:#C9E7FA"/>
	<stop offset="0.7617" style="stop-color:#B6DAF3"/>
	<stop offset="0.8337" style="stop-color:#9AC8EA"/>
	<stop offset="0.9052" style="stop-color:#77B0DD"/>
	<stop offset="0.9754" style="stop-color:#4D94CF"/>
	<stop offset="1" style="stop-color:#3C89C9"/>
</linearGradient>
<path fill="url(#svg2.SVGID_6_)" d="M19.625,10.113c10.839,0,19.625-1.875,19.625-4.188l-1.229-2c0,2.168-8.235,3.926-18.396,3.926  c-9.481,0-17.396-1.959-18.396-3.926L0,5.925C0,8.238,8.787,10.113,19.625,10.113z"/>
<linearGradient gradientTransform="matrix(1 0 0 -1 -642.8008 -939.4756)" x1="644.0293" x2="680.8223" gradientUnits="userSpaceOnUse" y1="-943.4014" y2="-943.4014" id="svg2.SVGID_7_">
	<stop offset="0" style="stop-color:#9CD7FF"/>
	<stop offset="1" style="stop-color:#3C89C9"/>
</linearGradient>
<ellipse rx="18.396" fill="url(#svg2.SVGID_7_)" ry="3.926" cx="19.625" cy="3.926"/>
<path fill="#FFFFFF" d="M31.04,45.982c0,0-4.354,0.664-7.29,0.781  c-3.125,0.125-8.952,0-8.952,0l-2.384-10.292l0.044-2.108l-1.251-1.154L9.789,23.024l-0.082-0.119L9.5,20.529l-1.65-1.254  L5.329,8.793c0,0,4.213,0.903,7.234,1.07s8.375,0.25,8.375,0.25l3,9.875l-0.25,1.313l1.063,2.168l2.312,9.645l-0.521,1.416  l1.46,1.834L31.04,45.982z" enable-background="new    " opacity="0.24"/>
</svg>
      </g>
    </g>
    <g text-rendering="geometricPrecision" shape-rendering="geometricPrecision" transform="matrix(1,0,0,1,193.6385,17.669)">
      <g clip-path="url(#clipPath5)">
        <svg xml:space="preserve" opacity="1" writing-mode="lr-tb" stop-color="rgb(0, 0, 0)" shape-rendering="auto" glyph-orientation-horizontal="0deg" color-profile="auto" lighting-color="rgb(255, 255, 255)" color="rgb(0, 0, 0)" font-weight="400" alignment-baseline="auto" font-style="normal" version="1.1" color-interpolation-filters="linearrgb" text-anchor="start" stroke-linecap="butt" color-interpolation="srgb" font-variant="normal" word-spacing="normal" fill-opacity="1" text-rendering="auto" clip-path="none" text-decoration="none" letter-spacing="normal" viewBox="-0.875 -0.887 41 48" glyph-orientation-vertical="auto" display="inline" font-size-adjust="none" overflow="visible" fill="rgb(0, 0, 0)" font-stretch="normal" stroke-dasharray="none" stroke-miterlimit="4" stop-opacity="1" color-rendering="auto" font-size="12" pointer-events="visiblepainted" mask="none" direction="ltr" baseline-shift="baseline" enable-background="new -0.875 -0.887 41 48" fill-rule="nonzero" image-rendering="auto" stroke-dashoffset="0" width="41px" marker-end="none" clip="auto" cursor="auto" stroke="none" filter="none" visibility="visible" kerning="auto" stroke-width="1" font-family="&quot;Arial&quot;,&quot;Helvetica&quot;,sans-serif" flood-opacity="1" clip-rule="nonzero" src="none" height="48px" unicode-bidi="normal" stroke-linejoin="miter" stroke-opacity="1" flood-color="rgb(0, 0, 0)" dominant-baseline="auto" marker-start="none" x="0px" marker-mid="none" y="0px">
<defs>
</defs>
<linearGradient gradientTransform="matrix(1 0 0 -1 -642.8008 -939.4756)" x1="642.8008" x2="682.0508" gradientUnits="userSpaceOnUse" y1="-979.1445" y2="-979.1445" id="svg3.SVGID_1_">
	<stop offset="0" style="stop-color:#3C89C9"/>
	<stop offset="0.1482" style="stop-color:#60A6DD"/>
	<stop offset="0.3113" style="stop-color:#81C1F0"/>
	<stop offset="0.4476" style="stop-color:#95D1FB"/>
	<stop offset="0.5394" style="stop-color:#9CD7FF"/>
	<stop offset="0.636" style="stop-color:#98D4FD"/>
	<stop offset="0.7293" style="stop-color:#8DCAF6"/>
	<stop offset="0.8214" style="stop-color:#79BBEB"/>
	<stop offset="0.912" style="stop-color:#5EA5DC"/>
	<stop offset="1" style="stop-color:#3C89C9"/>
</linearGradient>
<path fill="url(#svg3.SVGID_1_)" d="M19.625,36.763C8.787,36.763,0,34.888,0,32.575v10c0,2.313,8.787,4.188,19.625,4.188  c10.839,0,19.625-1.875,19.625-4.188v-10C39.25,34.888,30.464,36.763,19.625,36.763z"/>
<linearGradient gradientTransform="matrix(1 0 0 -1 -642.8008 -939.4756)" x1="642.8008" x2="682.0508" gradientUnits="userSpaceOnUse" y1="-973.1445" y2="-973.1445" id="svg3.SVGID_2_">
	<stop offset="0" style="stop-color:#9CD7FF"/>
	<stop offset="0.0039" style="stop-color:#9DD7FF"/>
	<stop offset="0.2273" style="stop-color:#BDE5FF"/>
	<stop offset="0.4138" style="stop-color:#D1EEFF"/>
	<stop offset="0.5394" style="stop-color:#D9F1FF"/>
	<stop offset="0.6155" style="stop-color:#D5EFFE"/>
	<stop offset="0.6891" style="stop-color:#C9E7FA"/>
	<stop offset="0.7617" style="stop-color:#B6DAF3"/>
	<stop offset="0.8337" style="stop-color:#9AC8EA"/>
	<stop offset="0.9052" style="stop-color:#77B0DD"/>
	<stop offset="0.9754" style="stop-color:#4D94CF"/>
	<stop offset="1" style="stop-color:#3C89C9"/>
</linearGradient>
<path fill="url(#svg3.SVGID_2_)" d="M19.625,36.763c10.839,0,19.625-1.875,19.625-4.188l-1.229-2c0,2.168-8.235,3.927-18.396,3.927  c-9.481,0-17.396-1.959-18.396-3.927l-1.229,2C0,34.888,8.787,36.763,19.625,36.763z"/>
<path fill="#3C89C9" d="M19.625,26.468c10.16,0,19.625,2.775,19.625,2.775c-0.375,2.721-5.367,5.438-19.554,5.438  c-12.125,0-18.467-2.484-19.541-4.918C-0.127,29.125,9.465,26.468,19.625,26.468z"/>
<linearGradient gradientTransform="matrix(1 0 0 -1 -642.8008 -939.4756)" x1="642.8008" x2="682.0508" gradientUnits="userSpaceOnUse" y1="-965.6948" y2="-965.6948" id="svg3.SVGID_3_">
	<stop offset="0" style="stop-color:#3C89C9"/>
	<stop offset="0.1482" style="stop-color:#60A6DD"/>
	<stop offset="0.3113" style="stop-color:#81C1F0"/>
	<stop offset="0.4476" style="stop-color:#95D1FB"/>
	<stop offset="0.5394" style="stop-color:#9CD7FF"/>
	<stop offset="0.636" style="stop-color:#98D4FD"/>
	<stop offset="0.7293" style="stop-color:#8DCAF6"/>
	<stop offset="0.8214" style="stop-color:#79BBEB"/>
	<stop offset="0.912" style="stop-color:#5EA5DC"/>
	<stop offset="1" style="stop-color:#3C89C9"/>
</linearGradient>
<path fill="url(#svg3.SVGID_3_)" d="M19.625,23.313C8.787,23.313,0,21.438,0,19.125v10c0,2.313,8.787,4.188,19.625,4.188  c10.839,0,19.625-1.875,19.625-4.188v-10C39.25,21.438,30.464,23.313,19.625,23.313z"/>
<linearGradient gradientTransform="matrix(1 0 0 -1 -642.8008 -939.4756)" x1="642.8008" x2="682.0508" gradientUnits="userSpaceOnUse" y1="-959.6948" y2="-959.6948" id="svg3.SVGID_4_">
	<stop offset="0" style="stop-color:#9CD7FF"/>
	<stop offset="0.0039" style="stop-color:#9DD7FF"/>
	<stop offset="0.2273" style="stop-color:#BDE5FF"/>
	<stop offset="0.4138" style="stop-color:#D1EEFF"/>
	<stop offset="0.5394" style="stop-color:#D9F1FF"/>
	<stop offset="0.6155" style="stop-color:#D5EFFE"/>
	<stop offset="0.6891" style="stop-color:#C9E7FA"/>
	<stop offset="0.7617" style="stop-color:#B6DAF3"/>
	<stop offset="0.8337" style="stop-color:#9AC8EA"/>
	<stop offset="0.9052" style="stop-color:#77B0DD"/>
	<stop offset="0.9754" style="stop-color:#4D94CF"/>
	<stop offset="1" style="stop-color:#3C89C9"/>
</linearGradient>
<path fill="url(#svg3.SVGID_4_)" d="M19.625,23.313c10.839,0,19.625-1.875,19.625-4.188l-1.229-2c0,2.168-8.235,3.926-18.396,3.926  c-9.481,0-17.396-1.959-18.396-3.926l-1.229,2C0,21.438,8.787,23.313,19.625,23.313z"/>
<path fill="#3C89C9" d="M19.476,13.019c10.161,0,19.625,2.775,19.625,2.775c-0.375,2.721-5.367,5.438-19.555,5.438  c-12.125,0-18.467-2.485-19.541-4.918C-0.277,15.674,9.316,13.019,19.476,13.019z"/>
<linearGradient gradientTransform="matrix(1 0 0 -1 -642.8008 -939.4756)" x1="642.8008" x2="682.0508" gradientUnits="userSpaceOnUse" y1="-952.4946" y2="-952.4946" id="svg3.SVGID_5_">
	<stop offset="0" style="stop-color:#3C89C9"/>
	<stop offset="0.1482" style="stop-color:#60A6DD"/>
	<stop offset="0.3113" style="stop-color:#81C1F0"/>
	<stop offset="0.4476" style="stop-color:#95D1FB"/>
	<stop offset="0.5394" style="stop-color:#9CD7FF"/>
	<stop offset="0.636" style="stop-color:#98D4FD"/>
	<stop offset="0.7293" style="stop-color:#8DCAF6"/>
	<stop offset="0.8214" style="stop-color:#79BBEB"/>
	<stop offset="0.912" style="stop-color:#5EA5DC"/>
	<stop offset="1" style="stop-color:#3C89C9"/>
</linearGradient>
<path fill="url(#svg3.SVGID_5_)" d="M19.625,10.113C8.787,10.113,0,8.238,0,5.925v10c0,2.313,8.787,4.188,19.625,4.188  c10.839,0,19.625-1.875,19.625-4.188v-10C39.25,8.238,30.464,10.113,19.625,10.113z"/>
<linearGradient gradientTransform="matrix(1 0 0 -1 -642.8008 -939.4756)" x1="642.8008" x2="682.0508" gradientUnits="userSpaceOnUse" y1="-946.4946" y2="-946.4946" id="svg3.SVGID_6_">
	<stop offset="0" style="stop-color:#9CD7FF"/>
	<stop offset="0.0039" style="stop-color:#9DD7FF"/>
	<stop offset="0.2273" style="stop-color:#BDE5FF"/>
	<stop offset="0.4138" style="stop-color:#D1EEFF"/>
	<stop offset="0.5394" style="stop-color:#D9F1FF"/>
	<stop offset="0.6155" style="stop-color:#D5EFFE"/>
	<stop offset="0.6891" style="stop-color:#C9E7FA"/>
	<stop offset="0.7617" style="stop-color:#B6DAF3"/>
	<stop offset="0.8337" style="stop-color:#9AC8EA"/>
	<stop offset="0.9052" style="stop-color:#77B0DD"/>
	<stop offset="0.9754" style="stop-color:#4D94CF"/>
	<stop offset="1" style="stop-color:#3C89C9"/>
</linearGradient>
<path fill="url(#svg3.SVGID_6_)" d="M19.625,10.113c10.839,0,19.625-1.875,19.625-4.188l-1.229-2c0,2.168-8.235,3.926-18.396,3.926  c-9.481,0-17.396-1.959-18.396-3.926L0,5.925C0,8.238,8.787,10.113,19.625,10.113z"/>
<linearGradient gradientTransform="matrix(1 0 0 -1 -642.8008 -939.4756)" x1="644.0293" x2="680.8223" gradientUnits="userSpaceOnUse" y1="-943.4014" y2="-943.4014" id="svg3.SVGID_7_">
	<stop offset="0" style="stop-color:#9CD7FF"/>
	<stop offset="1" style="stop-color:#3C89C9"/>
</linearGradient>
<ellipse rx="18.396" fill="url(#svg3.SVGID_7_)" ry="3.926" cx="19.625" cy="3.926"/>
<path fill="#FFFFFF" d="M31.04,45.982c0,0-4.354,0.664-7.29,0.781  c-3.125,0.125-8.952,0-8.952,0l-2.384-10.292l0.044-2.108l-1.251-1.154L9.789,23.024l-0.082-0.119L9.5,20.529l-1.65-1.254  L5.329,8.793c0,0,4.213,0.903,7.234,1.07s8.375,0.25,8.375,0.25l3,9.875l-0.25,1.313l1.063,2.168l2.312,9.645l-0.521,1.416  l1.46,1.834L31.04,45.982z" enable-background="new    " opacity="0.24"/>
</svg>
      </g>
    </g>
    <g stroke-linecap="butt" transform="matrix(1,0,0,1,-205,-223)" fill="white" text-rendering="geometricPrecision" shape-rendering="geometricPrecision" stroke="white" stroke-width="4" stroke-miterlimit="1.45">
      <path fill="none" d="M243.4971 384.3544 L262.4211 386.5837 L290.8291 393.3577 L317.2238 403.3221 L341.6054 416.477 L363.9738 432.8221 L384.3291 452.3577 L398.3254 469.6992 L398.3787 469.7838" clip-path="url(#clipPath2)"/>
    </g>
    <g stroke-linecap="butt" transform="matrix(1,0,0,1,-205,-223)" fill="white" text-rendering="geometricPrecision" shape-rendering="geometricPrecision" stroke="white" stroke-width="4" stroke-miterlimit="1.45">
      <path d="M404.915 478.6312 L400.6401 461.2749 L397.5616 468.6779 L389.5809 469.4453 Z" stroke="none" clip-path="url(#clipPath2)"/>
      <text x="290.1122" y="450.55" clip-path="url(#clipPath2)" font-family="sans-serif" stroke="none" stroke-width="1" xml:space="preserve">Query #2-11</text>
      <path fill="none" d="M399.2589 504.7188 L382.7188 506.7031 L365.9609 507.3633 L350.125 506.5625 L335.2109 504.3008 L321.2188 500.5781 L308.1484 495.3945 L296 488.75 L284.7734 480.6445 L274.4688 471.0781 L265.0859 460.0508 L256.625 447.5625 L249.0859 433.6133 L242.4688 418.2031 L241.4849 415.2886" stroke-width="7" clip-path="url(#clipPath2)"/>
      <path d="M237.007 402.024 L235.4334 424.7195 L242.0446 416.9467 L252.0141 419.1223 Z" stroke-width="7" clip-path="url(#clipPath2)" stroke="none"/>
      <text x="244.6988" y="523.1375" clip-path="url(#clipPath2)" font-family="sans-serif" stroke="none" stroke-width="1" xml:space="preserve">Response #2-11</text>
      <path fill="none" d="M237.007 363.976 L242.4688 347.7969 L249.0859 332.3867 L256.625 318.4375 L265.0859 305.9492 L274.4688 294.9219 L284.7734 285.3555 L296 277.25 L308.1484 270.6055 L321.2188 265.4219 L335.2109 261.6992 L350.125 259.4375 L365.9609 258.6367 L382.7188 259.2969 L391.3159 260.3283" stroke-width="1" clip-path="url(#clipPath2)"/>
      <path d="M399.2589 261.2812 L387.9399 254.8874 L390.323 260.2092 L386.7487 264.8163 Z" stroke-width="1" clip-path="url(#clipPath2)" stroke="none"/>
      <text x="266.2232" y="251.9328" clip-path="url(#clipPath2)" font-family="sans-serif" stroke="none" stroke-width="1" xml:space="preserve">Query #1</text>
      <path fill="none" d="M402.1888 286.5608 L400.9363 288.1671 L381.3551 308.9293 L360.2564 327.2867 L337.6402 343.2391 L313.5064 356.7867 L287.8551 367.9293 L260.6863 376.6671 L254.2551 378.0869" clip-path="url(#clipPath2)"/>
      <path d="M243.5137 380.4582 L261.1078 383.6146 L255.5978 377.7905 L258.1437 370.1879 Z" clip-path="url(#clipPath2)" stroke="none"/>
      <text x="288.859" y="317.2245" clip-path="url(#clipPath2)" font-family="sans-serif" stroke="none" stroke-width="1" xml:space="preserve">Response #1</text>
    </g>
  </g>
</svg>
